<?xml version="1.0" standalone="no"?>
<!DOCTYPE svg PUBLIC "-//W3C//DTD SVG 20010904//EN"
 "http://www.w3.org/TR/2001/REC-SVG-20010904/DTD/svg10.dtd">
<svg version="1.0" xmlns="http://www.w3.org/2000/svg"
 width="700.000000pt" height="700.000000pt" viewBox="0 0 700.000000 700.000000"
 preserveAspectRatio="xMidYMid meet">
<metadata>
Created by potrace 1.14, written by Peter Selinger 2001-2017
</metadata>
<g transform="translate(0.000000,700.000000) scale(0.100000,-0.100000)"
fill="#000000" stroke="none">
<path d="M1410 5480 c-41 -11 -85 -19 -97 -20 -19 0 -23 -6 -23 -30 0 -22 5
-30 18 -30 34 0 145 -76 206 -141 68 -72 114 -154 221 -394 79 -179 126 -260
195 -338 29 -32 50 -61 46 -64 -3 -4 -22 -2 -41 4 -32 10 -35 9 -35 -9 0 -47
91 -160 186 -234 127 -96 266 -116 547 -77 110 15 142 15 235 5 181 -20 167
-25 212 70 57 118 55 127 -22 84 -84 -47 -133 -51 -198 -19 -94 47 -161 143
-320 461 -127 255 -208 382 -299 473 -221 220 -563 326 -831 259z"/>
<path d="M5327 5490 c-239 -40 -461 -181 -618 -393 -34 -45 -107 -174 -174
-307 -129 -255 -187 -348 -267 -429 -115 -117 -159 -127 -264 -61 -36 22 -69
40 -74 38 -4 -2 11 -46 34 -98 l42 -95 54 2 c238 7 315 7 385 1 44 -4 139 -11
210 -14 129 -6 131 -6 185 21 128 65 236 159 279 243 28 54 27 62 -9 62 l-30
0 79 118 c88 131 115 182 191 359 76 178 154 283 313 420 88 77 105 103 65
103 -13 0 -57 9 -98 20 -79 21 -212 25 -303 10z"/>
<path d="M6216 4904 c-5 -12 -1 -14 17 -9 35 11 44 25 15 25 -14 0 -29 -7 -32
-16z"/>
<path d="M807 4880 c-4 -14 0 -20 12 -20 25 0 33 11 20 27 -16 18 -26 16 -32
-7z"/>
<path d="M6198 4794 c-7 -11 7 -50 21 -59 16 -9 14 28 -2 50 -8 10 -16 14 -19
9z"/>
<path d="M855 4779 c-11 -17 1 -21 15 -4 8 9 8 15 2 15 -6 0 -14 -5 -17 -11z"/>
<path d="M912 4622 c-17 -62 -22 -107 -22 -206 0 -77 4 -126 10 -126 6 0 10
16 10 35 0 64 21 134 61 197 22 35 47 78 56 96 16 31 16 33 -4 53 -11 12 -36
23 -55 26 l-35 4 -21 -79z"/>
<path d="M6053 4679 c-49 -24 -50 -20 22 -125 50 -72 69 -125 74 -201 1 -7 10
-13 22 -13 19 0 20 5 18 83 -1 45 -8 109 -16 142 -13 56 -54 135 -71 135 -4 0
-26 -9 -49 -21z"/>
<path d="M1125 4485 c-76 -83 -131 -258 -122 -385 5 -73 22 -140 36 -140 3 0
8 30 9 68 3 78 25 180 47 223 9 16 40 58 69 93 30 35 61 77 71 95 16 31 15 33
-2 46 -10 8 -31 19 -47 25 -26 9 -31 7 -61 -25z"/>
<path d="M5846 4491 c-34 -36 -33 -61 5 -97 95 -88 145 -186 157 -303 5 -49
12 -67 28 -77 20 -14 21 -12 25 43 7 110 2 158 -26 238 -50 144 -81 192 -136
214 -23 8 -30 6 -53 -18z"/>
<path d="M1294 4271 c-49 -22 -94 -77 -136 -167 -41 -88 -49 -194 -23 -311 18
-81 54 -187 61 -180 2 2 6 52 9 112 7 181 34 269 116 371 73 92 70 84 55 139
-7 28 -19 51 -27 52 -8 2 -32 -6 -55 -16z"/>
<path d="M5697 4253 c-31 -74 -31 -75 28 -140 58 -64 96 -131 114 -198 15 -57
30 -162 33 -219 1 -41 3 -46 14 -32 6 9 19 45 27 79 59 238 -1 453 -145 528
-50 25 -53 25 -71 -18z"/>
<path d="M780 4270 c-8 -26 -7 -41 2 -32 6 6 8 16 5 24 -3 7 -6 11 -7 8z"/>
<path d="M867 4053 c-6 -12 -2 -162 5 -168 3 -3 12 -3 21 0 12 5 13 13 6 38
-5 18 -10 56 -10 85 0 46 -10 66 -22 45z"/>
<path d="M6170 3959 c0 -51 4 -78 10 -74 6 3 10 40 10 81 0 43 -4 74 -10 74
-6 0 -10 -34 -10 -81z"/>
<path d="M1470 4008 c-43 -16 -99 -80 -121 -138 -44 -114 -34 -375 22 -564 25
-84 39 -104 39 -55 0 87 59 377 111 548 23 77 24 132 3 177 -20 42 -23 44 -54
32z"/>
<path d="M5548 3997 c-25 -43 -15 -171 25 -317 41 -153 62 -266 72 -390 4 -47
8 -86 10 -88 1 -1 14 32 28 75 72 220 78 507 13 631 -19 37 -75 88 -108 101
-24 9 -29 7 -40 -12z"/>
<path d="M1653 3728 c-54 -144 -57 -161 -57 -258 0 -105 29 -233 91 -394 35
-93 111 -246 122 -246 3 0 6 116 7 257 0 142 3 330 5 418 4 152 3 162 -20 208
-21 44 -80 97 -107 97 -6 0 -24 -37 -41 -82z"/>
<path d="M5320 3788 c-19 -13 -45 -45 -59 -73 -22 -44 -25 -62 -24 -145 0 -52
1 -241 2 -420 l2 -325 20 25 c28 36 124 234 148 305 51 158 65 336 35 470 -18
79 -63 185 -79 185 -6 0 -27 -10 -45 -22z"/>
<path d="M980 3660 c0 -53 4 -90 10 -90 6 0 10 37 10 90 0 53 -4 90 -10 90 -6
0 -10 -37 -10 -90z"/>
<path d="M6067 3713 c-11 -10 -8 -61 3 -68 6 -4 10 10 10 34 0 42 -2 46 -13
34z"/>
<path d="M1095 3380 c8 -184 11 -200 42 -200 l26 0 -6 108 c-6 119 -18 169
-48 204 l-20 23 6 -135z"/>
<path d="M4879 3466 c-41 -24 -50 -57 -44 -164 5 -87 19 -238 30 -332 2 -19 7
-96 10 -170 4 -74 8 -136 10 -138 1 -2 15 7 29 20 33 28 95 204 126 358 40
192 16 369 -54 415 -34 22 -78 27 -107 11z"/>
<path d="M5937 3457 c-38 -59 -52 -222 -21 -265 21 -31 32 -20 39 41 9 77 12
247 4 247 -4 0 -14 -10 -22 -23z"/>
<path d="M2080 3456 c-14 -8 -36 -34 -50 -58 -23 -40 -25 -53 -24 -168 0 -101
5 -146 27 -233 30 -120 96 -303 127 -351 l20 -31 0 115 c0 142 14 297 41 455
23 134 22 219 -4 259 -15 22 -25 26 -65 26 -26 -1 -58 -7 -72 -14z"/>
<path d="M2407 3362 c-9 -10 -27 -40 -39 -67 -20 -43 -23 -66 -23 -165 1 -158
40 -304 139 -515 l51 -109 6 299 c4 165 10 338 14 386 9 103 -4 138 -65 169
-48 25 -62 25 -83 2z"/>
<path d="M4568 3346 c-66 -50 -80 -96 -67 -208 11 -97 23 -261 22 -323 0 -27
-1 -106 -2 -175 -2 -69 -2 -132 -1 -140 2 -22 33 42 90 184 76 192 100 284
107 412 8 152 0 196 -44 245 -19 21 -41 39 -48 39 -7 0 -32 -16 -57 -34z"/>
<path d="M2869 3237 c-87 -67 -107 -263 -53 -507 42 -187 120 -400 146 -400 4
0 8 21 9 48 1 26 2 58 4 72 1 14 5 75 9 135 4 61 11 153 16 205 17 209 0 357
-49 414 -27 31 -64 46 -82 33z"/>
<path d="M3318 3222 c-99 -73 -138 -214 -108 -388 25 -136 102 -360 176 -505
37 -73 37 -74 45 -44 20 73 28 242 25 521 l-3 302 -28 50 c-15 28 -37 60 -49
71 -21 19 -21 19 -58 -7z"/>
<path d="M4127 3224 c-66 -65 -83 -170 -63 -384 8 -85 16 -206 21 -304 4 -86
31 -185 45 -169 13 14 118 345 135 428 10 45 18 126 18 185 0 152 -33 234
-104 259 -24 8 -31 6 -52 -15z"/>
<path d="M3663 3208 c-29 -32 -32 -40 -44 -100 -15 -74 -13 -606 2 -751 l13
-117 18 29 c30 46 96 215 133 336 81 266 92 437 36 545 -21 42 -74 80 -111 80
-15 0 -35 -10 -47 -22z"/>
<path d="M5532 3148 c-10 -24 -25 -61 -32 -83 -7 -22 -41 -102 -76 -178 -87
-186 -115 -273 -116 -355 0 -88 13 -122 44 -114 41 10 112 93 136 157 27 71
49 175 56 265 8 89 17 350 12 350 -2 0 -13 -19 -24 -42z"/>
<path d="M1276 3088 c5 -73 16 -133 46 -241 18 -69 23 -78 42 -75 19 3 21 10
24 77 3 86 -10 162 -39 217 -23 42 -58 84 -70 84 -5 0 -6 -28 -3 -62z"/>
<path d="M1509 3123 c-16 -42 -18 -177 -4 -268 37 -238 124 -411 222 -439 20
-6 22 -2 28 57 12 107 -23 232 -118 427 -63 129 -87 191 -87 226 0 33 -28 31
-41 -3z"/>
<path d="M5732 3068 c-53 -93 -62 -124 -62 -215 0 -80 10 -91 48 -50 38 40 55
97 60 202 7 146 4 150 -46 63z"/>
<path d="M2635 2645 c8 -306 28 -460 76 -610 57 -173 166 -326 243 -340 20 -4
39 -5 42 -2 3 3 5 42 5 87 0 141 -48 291 -190 598 -39 84 -91 212 -117 285
-26 73 -51 139 -55 147 -5 9 -7 -62 -4 -165z"/>
<path d="M4320 2563 c-200 -489 -219 -540 -234 -613 -8 -41 -17 -117 -21 -167
-6 -89 -6 -93 14 -93 11 0 33 5 48 12 138 60 222 242 269 578 14 104 32 510
22 510 -3 0 -47 -102 -98 -227z"/>
<path d="M2275 2613 c6 -195 11 -243 36 -396 31 -192 87 -325 147 -348 84 -32
131 117 82 262 -38 112 -181 463 -226 554 l-44 90 5 -162z"/>
<path d="M5102 2750 c-12 -12 -22 -23 -22 -26 0 -2 -27 -87 -60 -188 -67 -207
-81 -276 -69 -344 9 -46 45 -92 72 -92 17 0 64 128 83 225 13 67 31 445 21
445 -2 0 -13 -9 -25 -20z"/>
<path d="M4770 2757 c0 -11 -123 -326 -163 -419 -71 -162 -91 -232 -90 -318 0
-79 29 -170 54 -170 7 0 27 11 45 25 62 47 120 201 143 380 21 154 34 492 19
501 -4 3 -8 3 -8 1z"/>
<path d="M1940 2725 c-28 -33 13 -473 51 -551 18 -38 80 -86 94 -73 3 3 10 32
16 65 16 85 6 185 -30 284 -16 47 -45 131 -63 187 -33 103 -44 117 -68 88z"/>
<path d="M3920 2493 c-22 -59 -83 -187 -135 -283 -103 -192 -138 -276 -160
-382 -34 -161 -12 -238 67 -238 50 0 113 34 138 75 70 115 123 246 146 358 14
66 15 113 10 252 -7 176 -16 318 -21 323 -2 2 -22 -45 -45 -105z"/>
<path d="M3081 2501 c-1 -49 -4 -100 -6 -113 -12 -60 -5 -296 10 -362 51 -217
140 -392 219 -430 50 -23 78 -20 111 14 25 26 29 38 33 109 7 130 -23 216
-201 568 -83 167 -155 303 -158 303 -4 0 -7 -40 -8 -89z"/>
</g>
</svg>
