<?xml version="1.0" encoding="UTF-8"?>
<svg version="1.1" viewBox="0 0 1280 1280" xml:space="preserve" xmlns="http://www.w3.org/2000/svg" xmlns:cc="http://creativecommons.org/ns#" xmlns:dc="http://purl.org/dc/elements/1.1/" xmlns:rdf="http://www.w3.org/1999/02/22-rdf-syntax-ns#">
  <metadata>
    <rdf:RDF>
      <cc:Work rdf:about="">
        <dc:format>image/svg+xml</dc:format>
        <dc:type rdf:resource="http://purl.org/dc/dcmitype/StillImage" />
        <dc:title />
      </cc:Work>
    </rdf:RDF>
  </metadata>
  <defs>
    <filter id="c" color-interpolation-filters="sRGB">
      <feColorMatrix result="color2" values="1 0 0 0 0 0 1 0 0 0 0 0 1 0 0 -0.21 -0.72 -0.07 2 0 " />
    </filter>
    <filter id="b" color-interpolation-filters="sRGB">
      <feColorMatrix result="color2" values="1 0 0 0 0 0 1 0 0 0 0 0 1 0 0 -0.21 -0.72 -0.07 2 0 " />
    </filter>
    <filter id="a" color-interpolation-filters="sRGB">
      <feColorMatrix result="color2" values="1 0 0 0 0 0 1 0 0 0 0 0 1 0 0 -0.21 -0.72 -0.07 2 0 " />
    </filter>
  </defs>
  <style>
    .logo {
        fill: #000000;
        animation: colorRotate 3s infinite;
      }
  
      @keyframes colorRotate {
        from {
          fill: #6666ff;
        }
        10% {
          fill: #0099ff;
        }
        50% {
          fill: #00ff00;
        }
        75% {
          fill: #ff3399;
        }
        100% {
          fill: #6666ff;
        }
      }
    </style>
  <g class="logo">
    <g transform="matrix(7.1811 0 0 -7.1811 -2392.5 4075.5)" filter="url(#a)">
      <path d="m354.02 513.01c-1.224-0.018-0.158-0.065-0.192 0.723-0.047 1.085-1.092 0.627 0.069 0.507 0.137-0.014 1.853-1.205 0.123-1.23m137.4 1.155c0.137 1.101 2.854-0.01 0.708-0.055-0.519-0.011-0.865-1.212-0.708 0.055m-136.82-4.041c0.375 1.41-0.256 0.78 1.155 1.154zm136.24 1.154c0.224 0.08 0.394 1.534 1.155-1.732-1.758 1.178-0.799 1.055-1.155 1.732m-136.24-1.154-0.317-1.242zm1.732-11.547c0 5.848 2.74 6.524 3.464 9.237-1.846 1.237-0.404 0.948-2.887 1.155-1.504-6.456-1.154-0.981-1.154-10.392zm129.9 9.237c0.117-0.152 0.329-0.622 0.406-0.747 0.057-0.092 0.155-0.259 0.22-0.359 1.418-2.167 2.748-2.954 2.838-6.976h1.154c0 3.835-0.087 7.609-2.309 9.237-1.708-0.456-0.936-0.235-2.309-1.155m-126.43-17.896c-0.799 1.149 0.037-1.134-0.799 1.51-1.29 4.084 0.769 10.786 3.686 12.923 1.708-0.456 0.936-0.235 2.309-1.155-1.122-4.201-5.196-2.78-5.196-13.278m122.97 14.433c2.21-0.591 2.704-1.791 3.976-5.263 1.668-4.553 0.739-3.697 0.642-8.016-1.993 1.461-0.776 0.749-1.417 3.779-1.494 7.069-7.448 6.388-3.201 9.5m-129.9-6.928c0 1.477 0.915 0.092 0.344 0-7e-3 -1e-3 -0.344-1.612-0.344 0m10.969-16.742c0 5.002-0.247 8.756 2.808 12.779 2.302 3.032 2.196 1.099 1.233 5.117-2.344-0.195-3.288-1.469-4.394-3.111-2.698-4.003-2.065-8.382-0.58-12.833 0.023-0.068 0.504-1.21 0.509-1.222zm113.73 15.01c0.354 1.518 0.525 1.696 1.155 2.886 5.296-1.233 6.917-8.683 4.733-15.124l-0.692-1.618c0 2.532-0.543 6.127-1.203 8.034-1.186 3.421-2.349 3.367-3.993 5.822m-2.886-4.041c-2.427-5.058 2.309-9.522 2.309-21.361l0.977 2.487c1.54 4.893 3.529 17.286-3.286 18.874m-119.5 1.154h0.577c0-2.721 0.103-2.582 0.577-4.618h-1.154zm135.09-0.577h0.577v-4.041h-0.577zm-121.24-21.36c-0.077 0.121-0.16 0.472-0.186 0.39-0.091-0.282-2.123 4.961-2.123 11.733 0 4.272 1.238 7.757 4.618 8.66 2.227-3.204 0.931-3.223-0.808-10.738-0.618-2.67-1.501-7.235-1.501-10.045m118.93 10.968c-0.685 1.08-0.649-1.289-0.476 1.155 0.087 1.232 0.07 0.516 0.476 1.155zm0 0 0.664-1.125zm-129.9 2.887h0.577v-4.618h-0.577zm112 1.732c-4.908-1.311-3.54-7.941-3.453-10.365 0.176-4.86-0.011-10.129-0.011-15.037l0.958 1.352c4.377 7.298 6.743 16.043 2.506 24.05m-90.637-25.402c0 4.224-0.391 10.951 0.159 14.854 0.616 4.371 0.682 9.399-3.623 10.548-0.648-2.779-2.31-4.988-2.31-8.66 0-3.956 2.672-11.808 4.815-15.391 0.69-1.154 0.303-0.597 0.959-1.351m9.236-5.195c0 4.77 0.145 8.208 0.73 12.549 0.245 1.819 2.408 9.388-1.307 9.388-8.337 0-1.509-19.537 0.577-21.937m-27.71 23.092c2.159-2.484 1.732-5.639 1.732-8.66h-1.155c-0.708 3.038-0.577 4.917-0.577 8.66m122.39-6.35c0 2.629 0.284 4.106 1.732 5.773 0-3.744 0.13-5.623-0.577-8.66-0.856 0.985-1.155 1.003-1.155 2.887m-27.133 2.886c0-6.652 1.154-9.202 1.154-18.474 1.323 0.479 1.483 0.797 2.259 2.937 7.221 19.906-3.413 20.027-3.413 15.537m-5.196 0c2.799-2.433 2.309-2.331 2.309-7.505 0-3.103-1.01-5.934-1.972-8.419l-2.134-5.372c-0.056-0.122-0.122-0.278-0.181-0.395l-0.909-1.401c0 5.569 0.517 7.296 0.051 12.751-0.512 5.977-1.87 7.851 2.836 10.341m-53.113-22.515c-0.957 1.101-9.046 17.161-2.886 22.515 5.023-1.17 3.134-4.705 2.884-9.234-0.229-4.145 2e-3 -9.05 2e-3 -13.281m-32.329 16.742c3.584-2.626 3.096-7.301 2.887-9.814h-1.155c-0.838 3.597-1.732 5.058-1.732 9.814m55.422-5.773c0-4.436 0.97-10.677-0.578-17.319l-1.986 3.786c-2.525 6.484-7.296 17.62 0.255 21.615 3.932-3.73 2.309-7.391 2.309-8.082m17.896 8.082c-4.307-3.156-1.752-10.699-1.749-17.337 0-1.286-0.032-2.014 0.218-3.246l0.954-2.509c0.85 3.646 6.116 14.524 3.185 21.082-0.641 1.435-1.261 1.651-2.608 2.01m38.68-12.123c0 2.766-0.26 3.762 0.549 5.801l2.338 4.013c0-3.404 0.329-8.955-2.887-9.814m-105.07 9.814c0.383-4.608 3.651-7.018 5.189-13.902 0.763-3.419 0.261-2.088 7e-3 -5.149-6.021 0.501-8.21 19.051-5.196 19.051m36.37-21.36c-1.237 0.906-1.172 1.37-1.761 2.857-1.781 4.499-5.653 17.393-0.548 20.812 5.49-1.466 2.309-12.725 2.309-23.669m16.742-2.31 1.254 2.211c1.948 4.455 8.166 20.362 1.663 23.166-1.701 0.734-2.481-0.394-3.063-2.138-0.778-2.331-0.431-12.688-0.431-15.734 0-3.512 0.577-4.211 0.577-7.505m43.298 4.619c-2.533 4.51 2.683 11.992 4.119 16.087 0.224 0.64 0.37 1.294 0.708 2.179l0.947 1.94c0-7.713 0.051-18.651-5.774-20.206m-77.936 9.237c0-31.212 9.923-24.672 6.892-16.24-0.82 2.284-5.892 15.507-6.892 16.24m-8.66-2.887c0 2.368 0.088 1.528 1.155 2.31 1.787-7.669 4.676-9.059 2.886-16.742-2.716 0.725-3.037 2.96-3.38 5.856-0.379 3.184-0.661 5.094-0.661 8.576m66.968-20.783c6.062 1.619 5.773 18.746 5.773 24.247l-1.949-4.978c-2.786-8.523-7.154-12.976-3.824-19.269m-49.071 25.402 2.543-7.271c2.383-5.952 8.245-15.514 6.694-22.172-2.762 0.23-3.873 2.255-5.104 4.133-4.232 6.46-4.133 17.182-4.133 25.31m61.194-19.051c-4.794 1.28-0.98 9.355 0.485 13.947 0.688 2.156 0.325 2.273 1.825 3.372 0-4.406 0.29-9.074-0.936-13.497-0.549-1.976-0.936-1.946-1.374-3.822m-24.824-10.392c0 7.433 1.471 9.99 3.704 15.348l5.533 13.517c0-5.791 0.29-28.072-9.237-28.865m-25.401 12.701c0-3.611 1.72-8.466 2.875-10.981 4.08-8.884 11.963-4.061 2.872 11.533l-5.17 10.417zm13.855-12.701c0 8.25 5.708 13.884 7.862 20.426l1.164 2.878c0.041 0.079 0.131 0.25 0.211 0.366l0.577-11.547c0-4.245-1.551-7.783-3.055-10.799-0.957-1.919-1.451-2.871-3.386-3.627-1.684-0.659-3.373-0.096-3.373 2.303" fill-rule="evenodd" />
    </g>
    <path d="m1000.9 273.92c22.426 0.0431 31.058 7.0301 51.428 8.7204 0 8.1434-50.174 35.213-71.078 86.457-22.627 55.51-21.958 49.164-53.29 95.956h12.444c-6.5637 24.566-32.495 43.259-53.837 54.289-14.743 7.6263-9.3012 5.5305-21.911 4.8914-24.171-1.2208-47.741-1.5516-66.355-4.1656-29.924-4.2081-40.938 3.019-65.188 3.019-6.5136-12.308-10.075-24.996-16.588-37.311 19.597 5.235 25.872 27.691 50.597 9.3725 41.872-31.029 58.991-92.457 85.352-134.6 30.06-48.063 77.633-81.257 137.9-86.183 3.8407-0.31347 7.3258-0.44757 10.529-0.44165z" fill-opacity=".96092" fill-rule="evenodd" filter="url(#b)" />
    <path d="m286.98 273.98c3.2169-7e-3 6.729 0.13195 10.603 0.44164 50.16 4.007 100.01 30.056 128.84 70.342 19.058 26.627 32.542 56.71 48.283 88.529 48.163 97.34 74.72 64.145 96.745 52.491-3.3392 14.341-9.4623 26.683-16.579 37.311-26.003 0-36.37-7.3677-68.721-2.3983-52.278 8.0212-92.547 10.783-128.19-36.985-7.4254-9.9458-9.144-8.0594-10.372-22.795 7.5687 3.7487 5.1817 3.1751 16.578 4.1445-6.743-10.068-11.261-12.156-19.081-22.374-15.784-20.624-25.81-50.018-37.522-74.412-8.5026-17.73-14.683-33.955-27.192-47.441-11.26-12.143-26.915-25.752-44.717-29.896v-8.2891c20.509-1.7028 28.804-8.624 51.323-8.6678z" fill-rule="evenodd" filter="url(#c)" />
  </g>


</svg>